<?xml version="1.0" encoding="UTF-8"?>
<svg width="91.44mm" height="91.44mm" clip-rule="evenodd" fill-rule="evenodd" image-rendering="optimizeQuality" shape-rendering="geometricPrecision" text-rendering="geometricPrecision" version="1.1" viewBox="0 0 9144 9144" xmlns="http://www.w3.org/2000/svg">
 <defs>
  <style type="text/css">.fil1 {fill:white;fill-rule:nonzero} .fil0 {fill:url(#a)}</style>
  <linearGradient id="a" x1="10043" x2="-898.9" y1="6303" y2="2841" gradientUnits="userSpaceOnUse">
   <stop stop-color="#48CFAE" offset="0"/>
   <stop stop-color="#4FC0E8" offset="1"/>
  </linearGradient>
 </defs>
 <polygon class="fil0" points="0 0 9144 0 9144 9144 0 9144"/>
 <path class="fil1" d="m2551 2455h4042c53 0 96 43 96 96v4042c0 53-43 96-96 96h-4042c-53 0-96-43-96-96v-4042c0-53 43-96 96-96zm859 1644c-53 0-96-43-96-96s43-96 96-96h2650c53 0 96 43 96 96s-43 96-96 96h-2650zm0 644c-53 0-96-43-96-96s43-96 96-96h2650c53 0 96 43 96 96s-43 96-96 96h-2650zm0 643c-53 0-96-42-96-95s43-96 96-96h2650c53 0 96 43 96 96s-43 95-96 95h-2650zm0 644c-53 0-96-43-96-96 0-52 43-95 96-95h2650c53 0 96 43 96 95 0 53-43 96-96 96h-2650zm-326 0c-53 0-96-43-96-96 0-52 43-95 96-95h2c53 0 96 43 96 95 0 53-43 96-96 96h-2zm0-644c-53 0-96-42-96-95s43-96 96-96h2c53 0 96 43 96 96s-43 95-96 95h-2zm0-643c-53 0-96-43-96-96s43-96 96-96h2c53 0 96 43 96 96s-43 96-96 96h-2zm2976-1196h-2976c-53 0-96-43-96-96v-404c0-53 43-96 96-96h2976c53 0 96 43 96 96v404c0 53-43 96-96 96zm-2880-191h2784v-213h-2784v213zm-96 743c-53 0-96-43-96-96s43-96 96-96h2c53 0 96 43 96 96s-43 96-96 96h-2zm3413-1452h-3850v3850h3850v-3850z"/>
</svg>
